<svg
  xmlns="http://www.w3.org/2000/svg"
>
  <path
    fill="#1D2123"
    d="M52.5,0v64.2l-7,3.3l-7-3.3V14.7h-4.7V5.1h4.7l0,0c2.5-0.4,4.3-2.5,4.3-5V0H52.5z"
  />
  <polygon fill="#EE2424" points="0,4.9 1.3,20.2 31.7,36.3 31.7,21.8 " />
  <polygon fill="#EE2424" points="58.6,45.3 58.6,59.8 87.2,44.9 88.5,29.6 " />
  <polygon
    fill="#EE2424"
    points="58.6,21.8 58.6,36.3 89,20.2 89,20.2 90.4,4.9 "
  />
  <polygon
    fill="#EE2424"
    points="45.2,74.6 4.6,54.2 4.7,54.3 6,69.4 45.2,89.1 84.4,69.4 85.7,54.3 85.7,54.2 "
  />
  <polygon fill="#EE2424" points="1.9,29.6 3.2,44.9 31.7,59.8 31.7,45.3 " />
  <path
    fill="#1D2123"
    d="M121.1,76.6h-3.4v-6.8l-2.5,4.5h-1.6l-2.5-4.5v6.8h-3.3v-11h3.8l2.8,5l2.8-5h3.8L121.1,76.6L121.1,76.6z"
  />
  <path
    fill="#1D2123"
    d="M137.1,71.7H129c0,0.8,0.4,1.5,1,2c0.8,0.5,1.7,0.8,2.7,0.7c0.7,0,1.5-0.1,2.2-0.4c0.6-0.2,1.1-0.5,1.6-0.9  h0.4V76c-0.7,0.3-1.5,0.5-2.3,0.7s-1.6,0.2-2.3,0.2c-1.8,0.1-3.6-0.4-5.1-1.5c-1.2-1.1-1.9-2.6-1.8-4.2c-0.1-1.6,0.5-3.2,1.7-4.3  c1.3-1.1,2.9-1.7,4.6-1.6c1.5-0.1,2.9,0.4,4,1.4c1,1.1,1.4,2.5,1.4,3.9L137.1,71.7z M133.6,69.7c0-0.6-0.2-1.2-0.5-1.7  c-0.4-0.4-1-0.6-1.6-0.6s-1.2,0.2-1.7,0.5c-0.5,0.4-0.7,1-0.7,1.7L133.6,69.7L133.6,69.7z"
  />
  <path
    fill="#1D2123"
    d="M153.1,70.9c0,0.8-0.1,1.7-0.4,2.5c-0.2,0.7-0.6,1.3-1.1,1.8c-0.4,0.5-1,0.9-1.6,1.2  c-0.6,0.3-1.3,0.4-1.9,0.4c-0.5,0-1.1-0.1-1.6-0.2c-0.5-0.2-0.9-0.3-1.4-0.6v4.6h-3.5v-15h3.5v1.1c0.5-0.4,1.1-0.7,1.7-1  c0.6-0.3,1.3-0.4,2-0.4c1.2-0.1,2.4,0.5,3.2,1.5C152.7,68.1,153.1,69.5,153.1,70.9z M149.4,71c0.1-0.8-0.1-1.6-0.6-2.3  c-0.4-0.5-1.1-0.8-1.7-0.7c-0.3,0-0.7,0.1-1,0.1c-0.4,0.1-0.7,0.3-1,0.4V74c0.2,0.1,0.5,0.2,0.8,0.2s0.5,0,0.8,0  c0.8,0.1,1.5-0.2,2.1-0.8C149.3,72.7,149.5,71.9,149.4,71z"
  />
  <path
    fill="#1D2123"
    d="M168.4,71.7h-8.1c0,0.8,0.4,1.5,1,2c0.8,0.5,1.7,0.8,2.7,0.7c0.7,0,1.5-0.1,2.2-0.4c0.6-0.2,1.1-0.5,1.6-0.9  h0.4V76c-0.7,0.3-1.5,0.5-2.2,0.7c-0.8,0.1-1.6,0.2-2.3,0.2c-1.8,0.1-3.6-0.4-5.1-1.5c-1.2-1.1-1.9-2.6-1.8-4.2  c-0.1-1.6,0.5-3.2,1.7-4.3c1.2-1.1,2.9-1.7,4.5-1.6c1.5-0.1,2.9,0.4,4,1.4c1,1.1,1.4,2.5,1.4,3.9L168.4,71.7z M164.9,69.7  c0-0.6-0.2-1.2-0.6-1.7c-0.4-0.4-1-0.6-1.6-0.6s-1.2,0.2-1.7,0.5c-0.5,0.4-0.7,1-0.7,1.7L164.9,69.7L164.9,69.7z"
  />
  <path
    fill="#1D2123"
    d="M190.7,76.6h-4.1l-2.8-4.3h-1v4.4h-3.5v-4.4h-1l-2.8,4.4h-4.1l3.8-5.7c-0.2-0.1-0.3-0.3-0.4-0.4  c-0.2-0.3-0.3-0.5-0.4-0.8c-0.1-0.4-0.4-0.7-0.6-0.9c-0.3-0.2-0.6-0.3-0.9-0.2h-1v-2.9h1.4c0.7,0,1.4,0.1,2,0.5  c0.5,0.4,0.9,0.8,1.2,1.4c0.1,0.1,0.2,0.4,0.3,0.6l0.4,0.7c0.2,0.4,0.5,0.8,0.9,1.1c0.4,0.2,0.8,0.2,1.2,0.2v-4.4h3.5v4.4  c0.4,0,0.9,0,1.3-0.2c0.3-0.3,0.6-0.7,0.8-1.1c0.1-0.2,0.2-0.4,0.4-0.6s0.2-0.5,0.3-0.6c0.3-0.5,0.7-1,1.2-1.4  c0.6-0.4,1.4-0.6,2.1-0.5h1.4v2.9h-1c-0.3,0-0.6,0.1-0.9,0.3c-0.3,0.2-0.5,0.5-0.6,0.9c-0.1,0.3-0.2,0.5-0.4,0.8  c-0.1,0.2-0.3,0.4-0.4,0.5L190.7,76.6z"
  />
  <path
    fill="#1D2123"
    d="M201.4,75.4l-0.7,0.5c-0.6,0.4-1.2,0.7-1.9,0.8c-0.4,0.1-0.8,0.1-1.2,0.1c-1,0-1.9-0.3-2.6-1  c-0.7-0.6-1.1-1.5-1.1-2.5c0-0.7,0.2-1.4,0.5-2c0.4-0.5,0.9-0.9,1.5-1.2c0.8-0.3,1.6-0.5,2.4-0.6c1-0.1,2-0.2,3-0.3v-0.1  c0-0.5-0.3-1-0.8-1.3c-0.7-0.3-1.4-0.4-2.2-0.3c-0.6,0-1.3,0.1-1.9,0.3c-0.7,0.2-1.1,0.4-1.4,0.5h-0.3v-2.7c0.4-0.1,1-0.2,1.8-0.3  c0.8-0.1,1.7-0.2,2.5-0.2c1.5-0.1,3,0.2,4.4,0.9c0.9,0.7,1.4,1.8,1.3,2.9v7.5h-3.5L201.4,75.4z M201.4,73.7v-2.3  c-0.5,0-1,0.1-1.6,0.2c-0.4,0-0.8,0.1-1.3,0.2c-0.3,0.1-0.6,0.3-0.8,0.5s-0.3,0.5-0.3,0.8c0,0.2,0,0.4,0.1,0.6s0.2,0.3,0.3,0.4  c0.2,0.1,0.3,0.2,0.5,0.3c0.3,0.1,0.7,0.1,1,0.1c0.4,0,0.7-0.1,1.1-0.2C200.8,74.1,201.1,73.9,201.4,73.7z"
  />
  <path
    fill="#1D2123"
    d="M229.9,73.2c0,0.5-0.1,1-0.3,1.4s-0.5,0.7-0.9,1s-0.9,0.6-1.4,0.7c-0.6,0.1-1.2,0.2-1.8,0.2h-6.7v-11h6.4  c0.6,0,1.2,0,1.8,0.1c0.4,0.1,0.8,0.2,1.1,0.4c0.4,0.2,0.7,0.5,0.9,0.8c0.2,0.4,0.3,0.8,0.3,1.2c0,0.5-0.2,1-0.5,1.4  s-0.7,0.7-1.1,0.9v0.1c0.6,0.1,1.1,0.5,1.5,0.9C229.7,71.9,229.9,72.6,229.9,73.2z M225.8,68.9c0-0.3-0.1-0.7-0.4-0.9  c-0.4-0.2-0.8-0.3-1.2-0.3h-1.9V70h1.9c0.4,0,0.8-0.1,1.1-0.3C225.6,69.5,225.8,69.2,225.8,68.9L225.8,68.9z M226.3,73.1  c0-0.4-0.1-0.8-0.4-1c-0.4-0.2-0.8-0.3-1.2-0.3h-2.3v2.5h2.4c0.4,0,0.8-0.1,1.1-0.3C226.1,73.8,226.3,73.5,226.3,73.1L226.3,73.1z"
  />
  <path
    fill="#1D2123"
    d="M238,64h-3.7v-2.7h3.7V64z M237.9,76.6h-3.5v-11h3.6L237.9,76.6z"
  />
  <path
    fill="#1D2123"
    d="M254.3,76.6h-3.4v-6.7l-4.8,6.7h-2.9v-11h3.4v6l4.4-6h3.3V76.6z M253.1,60.7c0,1-0.4,1.9-1.1,2.6  c-2,1.3-4.5,1.3-6.5,0c-0.7-0.7-1.1-1.6-1.1-2.6h2.7c0,0.5,0.1,1,0.4,1.4c0.3,0.4,0.8,0.5,1.2,0.5c0.5,0,0.9-0.1,1.2-0.5  s0.4-0.9,0.4-1.4H253.1z"
  />
  <path
    fill="#1D2123"
    d="M265.3,76.9c-0.9,0-1.8-0.1-2.6-0.4c-0.8-0.2-1.5-0.6-2.1-1.1s-1.1-1.1-1.4-1.8c-0.3-0.8-0.5-1.7-0.5-2.6  s0.2-1.8,0.5-2.6c0.3-0.7,0.8-1.4,1.4-1.9s1.3-0.8,2-1c0.8-0.2,1.6-0.3,2.4-0.3c0.7,0,1.4,0.1,2.1,0.2c0.6,0.2,1.2,0.4,1.8,0.6v3  h-0.5l-0.5-0.4c-0.2-0.2-0.5-0.3-0.7-0.5c-0.3-0.1-0.6-0.3-0.9-0.4c-0.4-0.1-0.7-0.2-1.1-0.1c-0.8,0-1.6,0.3-2.2,0.9  c-0.5,0.7-0.8,1.6-0.8,2.4c-0.1,0.9,0.2,1.7,0.8,2.4c0.6,0.6,1.4,0.9,2.2,0.8c0.4,0,0.8,0,1.2-0.1c0.3-0.1,0.6-0.2,0.9-0.4  c0.2-0.1,0.4-0.3,0.6-0.4l0.5-0.4h0.5v3c-0.6,0.3-1.1,0.5-1.7,0.6C266.6,76.8,265.9,76.9,265.3,76.9z"
  />
  <path
    fill="#1D2123"
    d="M284,72.9c0,0.5-0.1,1.1-0.3,1.6c-0.2,0.4-0.5,0.8-0.9,1.2c-0.4,0.3-0.9,0.6-1.4,0.8  c-0.6,0.2-1.3,0.2-1.9,0.2h-6.2v-11h3.5v3.7h2.7c0.6,0,1.3,0,1.9,0.2c0.5,0.1,1,0.4,1.4,0.7c0.4,0.3,0.7,0.7,0.9,1.2  C283.9,71.8,284,72.3,284,72.9z M280.3,72.9c0-0.4-0.1-0.8-0.4-1.1c-0.4-0.3-0.8-0.4-1.2-0.4h-1.9v2.9h1.9c0.3,0,0.6,0,0.9-0.1  c0.2-0.1,0.4-0.2,0.5-0.4c0.1-0.1,0.2-0.3,0.2-0.4C280.3,73.2,280.3,73.1,280.3,72.9L280.3,72.9z"
  />
  <path
    fill="#1D2123"
    d="M300,76.6h-4.1l-3-4.3h-1.1v4.4h-3.5v-11h3.5V70c0.5,0,0.9,0,1.4-0.2c0.4-0.3,0.7-0.6,0.9-1.1  c0.1-0.2,0.2-0.4,0.4-0.6l0.3-0.6c0.3-0.6,0.7-1.1,1.3-1.4c0.6-0.3,1.3-0.5,2-0.5h1.4v2.9h-1c-0.3,0-0.7,0.1-0.9,0.3  c-0.3,0.2-0.5,0.5-0.6,0.9c-0.1,0.3-0.2,0.5-0.4,0.8c-0.1,0.2-0.3,0.4-0.5,0.5L300,76.6z"
  />
  <path
    fill="#1D2123"
    d="M314.9,71.1c0.1,1.6-0.5,3.1-1.6,4.3c-2.6,2.1-6.3,2.1-8.9,0c-2.1-2.5-2.1-6.1,0-8.6c2.6-2.1,6.3-2.1,8.9,0  C314.4,67.9,315,69.5,314.9,71.1z M310.5,73.8c0.2-0.3,0.4-0.6,0.5-1c0.1-0.5,0.2-1.1,0.2-1.6s0-1.1-0.2-1.6c-0.1-0.4-0.3-0.7-0.5-1  s-0.5-0.5-0.8-0.6s-0.6-0.2-1-0.2c-0.3,0-0.6,0-0.9,0.1s-0.6,0.3-0.8,0.6c-0.2,0.3-0.4,0.7-0.5,1.1c-0.1,0.5-0.2,1.1-0.2,1.7  c0,0.5,0,1.1,0.2,1.6c0.1,0.4,0.3,0.7,0.5,1.1c0.2,0.2,0.5,0.4,0.8,0.6c0.6,0.2,1.3,0.2,1.9,0C310.1,74.2,310.3,74,310.5,73.8  L310.5,73.8z"
  />
  <path
    fill="#1D2123"
    d="M330.4,73.2c0,0.5-0.1,1-0.3,1.4c-0.2,0.4-0.5,0.7-0.8,1c-0.4,0.3-0.9,0.6-1.4,0.7c-0.6,0.1-1.2,0.2-1.8,0.2  h-6.7v-11h6.4c0.6,0,1.2,0,1.8,0.1c0.4,0.1,0.8,0.2,1.1,0.4c0.4,0.2,0.7,0.5,0.9,0.8c0.2,0.4,0.3,0.8,0.3,1.2c0,0.5-0.2,1-0.5,1.4  s-0.7,0.7-1.1,0.9v0.1c0.6,0.1,1.1,0.5,1.5,0.9C330.2,71.9,330.4,72.6,330.4,73.2z M326.2,68.9c0-0.3-0.1-0.7-0.4-0.9  c-0.4-0.2-0.8-0.3-1.2-0.3h-1.9V70h1.9c0.4,0,0.8-0.1,1.1-0.3C326.1,69.5,326.2,69.2,326.2,68.9L326.2,68.9z M326.7,73.1  c0-0.4-0.1-0.8-0.4-1c-0.4-0.2-0.8-0.3-1.2-0.3h-2.3v2.5h2.4c0.4,0,0.8-0.1,1.1-0.3C326.6,73.8,326.7,73.5,326.7,73.1L326.7,73.1z"
  />
  <path
    fill="#1D2123"
    d="M346,76.6h-3.4v-6.7l-4.8,6.7h-2.9v-11h3.4v6l4.4-6h3.3V76.6z"
  />
  <path
    fill="#1D2123"
    d="M362.7,76.6h-4.1l-2.4-3.3l-2.4,3.3h-4l4.3-5.5l-4.3-5.5h4l2.3,3.2l2.3-3.2h4l-4.3,5.4L362.7,76.6z"
  />
  <path
    fill="#1D2123"
    d="M388.7,76.6h-3.4v-6.8l-2.5,4.5h-1.5l-2.5-4.5v6.8h-3.3v-11h3.8l2.8,5l2.8-5h3.8L388.7,76.6z"
  />
  <path
    fill="#1D2123"
    d="M400.6,75.4l-0.7,0.5c-0.2,0.2-0.5,0.3-0.8,0.5s-0.7,0.3-1.1,0.4s-0.8,0.1-1.2,0.1c-1,0-1.9-0.3-2.6-1  c-0.7-0.6-1.1-1.5-1.1-2.5c0-0.7,0.2-1.4,0.5-2c0.4-0.5,0.9-1,1.5-1.2c0.8-0.3,1.6-0.5,2.4-0.6c1-0.1,2-0.2,3-0.3l0,0  c0-0.5-0.3-1-0.7-1.3c-0.7-0.3-1.5-0.4-2.2-0.3c-0.6,0-1.3,0.1-1.9,0.3c-0.7,0.2-1.1,0.4-1.4,0.5H394v-2.7c0.4-0.1,1-0.2,1.8-0.3  c0.8-0.1,1.7-0.2,2.5-0.2c1.5-0.1,3,0.2,4.3,0.9c0.9,0.7,1.4,1.8,1.3,2.9v7.5h-3.5L400.6,75.4z M400.6,73.7v-2.3  c-0.5,0-1,0.1-1.5,0.2c-0.4,0-0.9,0.1-1.3,0.2c-0.3,0.1-0.6,0.3-0.8,0.5c-0.2,0.2-0.3,0.5-0.3,0.8c0,0.2,0,0.4,0,0.6  c0.1,0.2,0.2,0.3,0.3,0.4c0.2,0.1,0.3,0.2,0.5,0.3c0.3,0.1,0.7,0.1,1,0.1c0.4,0,0.7-0.1,1.1-0.2C400,74.1,400.3,73.9,400.6,73.7z"
  />
  <path fill="#1D2123" d="M418.2,68h-5.4v8.5h-3.5v-11h8.9V68z" />
  <path
    fill="#1D2123"
    d="M428.5,75.4l-0.7,0.5c-0.3,0.2-0.5,0.3-0.8,0.5s-0.7,0.3-1.1,0.4s-0.8,0.1-1.2,0.1c-1,0-1.9-0.3-2.6-1  c-0.7-0.6-1.1-1.5-1-2.5c0-0.7,0.1-1.4,0.5-2c0.4-0.5,0.9-1,1.5-1.2c0.8-0.3,1.6-0.5,2.4-0.6c1-0.1,2-0.2,3-0.3l0,0  c0-0.5-0.3-1-0.7-1.3c-0.7-0.3-1.5-0.4-2.2-0.3c-0.6,0-1.3,0.1-1.9,0.3c-0.7,0.2-1.1,0.4-1.4,0.5H422v-2.7c0.4-0.1,1-0.2,1.8-0.3  c0.8-0.1,1.7-0.2,2.5-0.2c1.5-0.1,3,0.2,4.3,0.9c0.9,0.7,1.4,1.8,1.3,2.9v7.5h-3.5L428.5,75.4z M428.5,73.7v-2.3  c-0.5,0-1,0.1-1.5,0.2c-0.4,0-0.8,0.1-1.3,0.2c-0.3,0.1-0.6,0.3-0.8,0.5c-0.2,0.2-0.3,0.5-0.3,0.8c0,0.2,0,0.4,0.1,0.6  s0.2,0.3,0.3,0.4c0.2,0.1,0.3,0.2,0.5,0.3c0.3,0.1,0.7,0.1,1,0.1c0.4,0,0.7-0.1,1.1-0.2C427.9,74.1,428.2,73.9,428.5,73.7z"
  />
  <path
    fill="#1D2123"
    d="M446.4,73.5c0,0.6-0.1,1.1-0.5,1.6c-0.3,0.5-0.8,0.8-1.2,1.1c-0.6,0.3-1.1,0.5-1.8,0.6  c-0.7,0.1-1.4,0.2-2.1,0.2c-0.9,0-1.7-0.1-2.5-0.2c-0.7-0.2-1.5-0.4-2.2-0.6v-2.7h0.4c0.6,0.3,1.1,0.6,1.7,0.8  c0.6,0.2,1.3,0.3,2,0.3c0.2,0,0.5,0,0.9-0.1c0.3,0,0.5-0.1,0.8-0.1c0.2-0.1,0.4-0.2,0.6-0.4c0.2-0.2,0.2-0.4,0.2-0.7  c0-0.2-0.1-0.5-0.2-0.6c-0.1-0.2-0.3-0.3-0.5-0.4s-0.5-0.1-0.7-0.1h-1.1h-1.7V70h2.3c0.3,0,0.6,0,0.9-0.1c0.3,0,0.5-0.2,0.7-0.3  c0.1-0.2,0.2-0.4,0.2-0.6s-0.1-0.4-0.2-0.5c-0.2-0.1-0.3-0.3-0.5-0.3c-0.2-0.1-0.4-0.1-0.7-0.1c-0.3,0-0.5,0-0.8-0.1  c-0.5,0-1.1,0.1-1.6,0.2c-0.6,0.1-1.1,0.3-1.6,0.6h-0.4V66c0.4-0.1,1-0.3,1.8-0.4c0.8-0.2,1.6-0.3,2.4-0.3c0.7,0,1.3,0,2,0.2  c0.5,0.1,1.1,0.3,1.6,0.5s0.9,0.5,1.2,0.9c0.3,0.4,0.5,0.9,0.5,1.4c0,0.6-0.2,1.1-0.6,1.6c-0.4,0.4-0.9,0.8-1.5,0.9v0.1  c0.6,0.1,1.2,0.5,1.6,0.9C446.2,72.2,446.4,72.8,446.4,73.5z"
  />
  <path
    fill="#1D2123"
    d="M462,76.6h-3.4v-6.7l-4.8,6.7H451v-11h3.4v6l4.4-6h3.3L462,76.6z"
  />
  <path
    fill="#1D2123"
    d="M478.4,76.6h-3.5v-4.7h-4v4.7h-3.5v-11h3.5v3.8h4v-3.8h3.5V76.6z"
  />
  <path
    fill="#1D2123"
    d="M487.3,64h-3.7v-2.7h3.7V64z M487.2,76.6h-3.5v-11h3.5V76.6z"
  />
  <path
    fill="#1D2123"
    d="M503.5,73.2c0,0.5-0.1,1-0.3,1.4c-0.2,0.4-0.5,0.7-0.8,1c-0.4,0.3-0.9,0.6-1.4,0.7c-0.6,0.1-1.2,0.2-1.8,0.2  h-6.7v-11h6.4c0.6,0,1.2,0,1.8,0.1c0.4,0.1,0.8,0.2,1.1,0.4c0.4,0.2,0.7,0.5,0.9,0.8c0.2,0.4,0.3,0.8,0.3,1.2c0,0.5-0.2,1-0.5,1.4  s-0.7,0.7-1.1,0.9v0.1c0.6,0.1,1.1,0.5,1.5,0.9C503.3,71.9,503.5,72.6,503.5,73.2z M499.3,68.9c0-0.3-0.1-0.7-0.4-0.9  c-0.4-0.2-0.8-0.3-1.2-0.3H496V70h1.9c0.4,0,0.8-0.1,1.1-0.3C499.2,69.5,499.4,69.2,499.3,68.9L499.3,68.9z M499.8,73.1  c0-0.4-0.1-0.8-0.4-1c-0.4-0.2-0.8-0.3-1.2-0.3H496v2.5h2.3c0.4,0,0.8-0.1,1.1-0.3C499.7,73.8,499.8,73.5,499.8,73.1L499.8,73.1z"
  />
  <rect x="107.6" y="56.9" fill="#EE2424" width="396" height="1.9" />
  <path
    fill="#1D2123"
    d="M134.4,14.7c-1.3-0.9-2.8-1.5-4.3-1.8c-2-0.4-4-0.6-6-0.6h-15.9v37.4h9.7V37.5h6c2.3,0.1,4.7-0.3,6.9-1.1  c1.9-0.8,3.6-1.9,5-3.3c1.1-1.1,2-2.5,2.5-4c0.6-1.6,0.9-3.2,0.9-4.9c0.1-1.9-0.4-3.8-1.2-5.6C137.1,17,135.9,15.6,134.4,14.7z   M128.7,27c-0.3,0.7-0.7,1.4-1.4,1.9c-0.8,0.6-1.7,1-2.7,1.2c-1.3,0.2-2.7,0.3-4.1,0.3h-2.8V19.2h1.7c1.6,0,2.9,0,3.8,0.1  c1,0.1,2,0.3,2.9,0.7c0.8,0.3,1.5,0.9,2,1.6c0.6,0.8,0.9,1.7,0.9,2.7C129.1,25.2,129,26.1,128.7,27z"
  />
  <path
    fill="#1D2123"
    d="M176.2,29.2c1.4-2,2-4.4,1.9-6.8c0.1-1.8-0.4-3.5-1.2-5c-0.8-1.3-2-2.4-3.4-3.2s-2.9-1.4-4.5-1.6  c-1.9-0.3-3.8-0.4-5.7-0.4h-16.2v37.4h9.6V35.9h4.5l10.2,13.7h11.8l-12.5-16C172.9,32.7,174.8,31.2,176.2,29.2z M167.7,26.2  c-0.4,0.7-0.9,1.3-1.5,1.7c-0.8,0.5-1.7,0.9-2.6,1c-1.3,0.2-2.6,0.2-3.9,0.2h-3v-10h3.5c1.1,0,2.2,0,3,0.1c0.8,0,1.6,0.2,2.3,0.5  c0.8,0.3,1.5,0.8,2,1.6c0.4,0.7,0.6,1.6,0.6,2.4C168.2,24.6,168.1,25.4,167.7,26.2z"
  />
  <path
    fill="#1D2123"
    d="M205.9,11.4c-6,0-10.7,1.7-14.2,5.2s-5.2,8.2-5.1,14.3c0,6,1.7,10.7,5.1,14.2c3.4,3.5,8.1,5.2,14.2,5.3  c6,0,10.7-1.8,14.2-5.3s5.2-8.3,5.1-14.2c0-6-1.7-10.8-5.1-14.3C216.6,13.2,211.9,11.4,205.9,11.4z M214.5,36.4  c-0.4,1.5-1.1,2.8-2.1,4c-0.8,1-1.8,1.7-2.9,2.2c-1.1,0.5-2.3,0.7-3.6,0.7c-1.2,0-2.4-0.2-3.5-0.7s-2.2-1.2-2.9-2.2  c-0.9-1.1-1.6-2.4-2-3.8c-0.6-1.8-0.8-3.8-0.8-5.7c0-1.9,0.2-3.9,0.8-5.7c0.4-1.4,1.1-2.7,2-3.9c0.8-0.9,1.8-1.7,3-2.2  c1.1-0.4,2.3-0.7,3.4-0.7c1.2,0,2.4,0.2,3.5,0.7s2.2,1.2,2.9,2.2c0.9,1.1,1.6,2.4,2,3.8c0.6,1.9,0.8,3.8,0.8,5.7  C215.2,32.8,214.9,34.6,214.5,36.4L214.5,36.4z"
  />
  <polygon
    fill="#1D2123"
    points="233.8,49.7 243.4,49.7 243.4,33.7 259.4,33.7 259.4,26.4 243.4,26.4 243.4,19.5 260.7,19.5   260.7,12.2 233.8,12.2 "
  />
  <path
    fill="#1D2123"
    d="M318,36.1h7.5v7.3c-0.4,0-0.8,0.1-1.2,0.1H323c-4.3,0-7.5-1.1-9.7-3.3s-3.3-5.4-3.3-9.5  c0-1.8,0.3-3.7,0.9-5.4c0.5-1.4,1.4-2.8,2.5-3.8s2.3-1.8,3.7-2.3c1.5-0.5,3.1-0.8,4.6-0.8c1.4,0,2.8,0.2,4.1,0.6  c1.2,0.3,2.3,0.8,3.4,1.4c0.9,0.5,1.8,1,2.6,1.7c0.9,0.6,1.6,1.1,2.1,1.5h1.1v-8.8c-2.4-1.2-4.9-2.1-7.5-2.7c-2.3-0.4-4.7-0.7-7-0.7  c-6.5,0-11.6,1.8-15.2,5.3s-5.5,8.2-5.5,14.1c0,6.1,1.8,10.9,5.4,14.3c3.6,3.5,8.6,5.2,15,5.2c2.8,0,5.6-0.3,8.3-1  c2.3-0.5,4.5-1.1,6.7-1.9V29.1H318V36.1z"
  />
  <path
    fill="#1D2123"
    d="M374.2,29.2c1.4-2,2-4.4,1.9-6.8c0.1-1.8-0.4-3.5-1.2-5c-0.8-1.3-2-2.4-3.4-3.2s-2.9-1.4-4.5-1.6  c-1.9-0.3-3.8-0.4-5.7-0.4h-16.2v37.4h9.6V35.9h4.5l10.2,13.7h11.8l-12.5-16C370.8,32.7,372.7,31.1,374.2,29.2z M365.7,26.2  c-0.4,0.7-0.9,1.3-1.5,1.7c-0.8,0.6-1.7,0.9-2.6,1c-1.3,0.2-2.6,0.2-3.9,0.2h-3v-10h3.5c1.2,0,2.2,0,3,0.1c0.8,0,1.6,0.2,2.3,0.5  c0.8,0.3,1.5,0.8,2,1.6c0.4,0.7,0.6,1.6,0.6,2.4C366.1,24.6,366,25.4,365.7,26.2z"
  />
  <path
    fill="#1D2123"
    d="M403.8,11.4c-6,0-10.7,1.7-14.2,5.2s-5.1,8.2-5.1,14.3c0,6,1.7,10.7,5.1,14.2s8.1,5.2,14.2,5.3  c6,0,10.8-1.8,14.2-5.3c3.4-3.5,5.1-8.3,5.1-14.2c0-6-1.7-10.8-5.2-14.3S409.8,11.4,403.8,11.4z M412.4,36.4c-0.4,1.5-1.1,2.8-2.1,4  c-0.8,1-1.8,1.7-3,2.2c-1.1,0.5-2.3,0.7-3.5,0.7s-2.4-0.2-3.5-0.7s-2.1-1.2-2.9-2.2c-0.9-1.1-1.6-2.4-2-3.8  c-0.6-1.8-0.8-3.8-0.8-5.7c0-1.9,0.2-3.9,0.8-5.7c0.4-1.4,1.1-2.7,2-3.9c0.8-0.9,1.8-1.7,3-2.2c1.1-0.4,2.3-0.7,3.5-0.7  s2.4,0.2,3.5,0.7c1.2,0.5,2.2,1.2,3,2.2c0.9,1.1,1.6,2.4,2,3.8c0.6,1.9,0.8,3.8,0.8,5.7C413.1,32.8,412.9,34.6,412.4,36.4  L412.4,36.4z"
  />
  <path
    fill="#1D2123"
    d="M454.9,35.6c0,2.7-0.6,4.7-1.7,5.9s-2.9,1.8-5.3,1.8s-4.2-0.6-5.3-1.9s-1.6-3.2-1.6-5.8V12.2h-9.7v23.9  c0,4.6,1.4,8.2,4.2,10.6c2.8,2.5,7,3.7,12.4,3.7c5.5,0,9.6-1.2,12.5-3.7s4.2-6,4.2-10.6V12.2h-9.7V35.6z"
  />
  <path
    fill="#1D2123"
    d="M504.6,18.5c-0.8-1.5-2-2.9-3.5-3.8c-1.3-0.9-2.8-1.5-4.3-1.8c-2-0.4-4-0.6-6-0.6h-15.9v37.4h9.7V37.5h6  c2.3,0.1,4.7-0.3,6.8-1.1c1.9-0.8,3.6-1.9,5-3.3c1.1-1.1,2-2.5,2.5-4c0.6-1.6,0.9-3.2,0.9-4.9C505.9,22.2,505.4,20.2,504.6,18.5z   M495.4,27c-0.3,0.7-0.7,1.4-1.3,1.9c-0.8,0.6-1.7,1-2.7,1.2c-1.3,0.2-2.7,0.3-4.1,0.3h-2.8V19.2h1.7c1.6,0,2.9,0,3.8,0.1  c1,0.1,2,0.3,2.9,0.7c0.8,0.3,1.5,0.9,2,1.6c0.6,0.8,0.9,1.7,0.8,2.7C495.8,25.2,495.7,26.1,495.4,27z"
  />
  <path
    fill="#1D2123"
    d="M287.1,11.5h-7l0,0c-0.1,1.6-1.5,2.9-3.1,3l0,0h-3.7v5.8h3.7v25.9h-5v4.3h19.8v-4.3h-4.7L287.1,11.5z"
  />
  <path
    fill="#231F20"
    d="M521.1,17.2c0.1,3-2.3,5.4-5.2,5.5s-5.4-2.3-5.5-5.2c-0.1-3,2.3-5.4,5.2-5.5c0.1,0,0.1,0,0.2,0  C518.6,12,521,14.3,521.1,17.2L521.1,17.2z M511.7,17.2c-0.1,2.2,1.7,4.1,3.9,4.2c0.1,0,0.1,0,0.2,0c2.3,0,4.2-1.9,4.2-4.2  s-1.9-4.2-4.2-4.2c-2.2,0-4.1,1.8-4.1,4C511.7,17.2,511.7,17.2,511.7,17.2L511.7,17.2z M515,20h-1.2v-5.2c0.7-0.1,1.3-0.2,2-0.2  c0.6-0.1,1.3,0.1,1.8,0.4c0.3,0.3,0.5,0.7,0.5,1.2c0,0.6-0.5,1.1-1.1,1.2v0.1c0.5,0.2,0.9,0.7,1,1.3c0.1,0.5,0.2,0.9,0.4,1.3H517  c-0.2-0.4-0.3-0.8-0.4-1.3c-0.1-0.6-0.4-0.8-1.1-0.8H515V20z M515,17h0.6c0.7,0,1.2-0.2,1.2-0.8s-0.3-0.8-1.1-0.8  c-0.2,0-0.4,0-0.7,0.1V17z"
  />
</svg>
